<?xml version="1.0" standalone="no"?>
<!DOCTYPE svg PUBLIC "-//W3C//DTD SVG 20010904//EN"
 "http://www.w3.org/TR/2001/REC-SVG-20010904/DTD/svg10.dtd">
<svg version="1.0" xmlns="http://www.w3.org/2000/svg"
 width="100.000000pt" height="100.000000pt" viewBox="0 0 100.000000 100.000000"
 preserveAspectRatio="xMidYMid meet">
<metadata>
Created by potrace 1.14, written by Peter Selinger 2001-2017
</metadata>
<g transform="translate(0.000000,100.000000) scale(0.100000,-0.100000)"
fill="#000000" stroke="none">
<path d="M241 932 c-37 -20 -71 -73 -71 -110 0 -66 62 -132 123 -132 41 0 93
25 112 54 20 30 43 33 90 10 46 -21 62 -61 64 -157 1 -44 4 -84 7 -89 6 -9 11
-9 -169 -10 -137 0 -138 0 -158 26 -60 76 -164 75 -216 -3 -44 -66 -19 -150
54 -183 55 -24 98 -14 154 37 l41 36 233 -3 c231 -3 234 -3 259 -27 62 -58 12
-163 -72 -152 -7 1 -28 17 -47 36 -60 57 -130 58 -184 2 -17 -17 -32 -38 -32
-46 -6 -75 -1 -96 31 -129 54 -57 131 -55 188 5 18 20 43 37 55 39 77 10 115
33 151 87 46 71 30 176 -34 230 -29 25 -86 47 -122 47 -46 0 -64 68 -26 94 32
23 64 20 85 -7 40 -51 103 -74 151 -56 97 37 120 154 44 222 -49 45 -131 36
-182 -19 -17 -19 -38 -34 -48 -35 -9 0 -32 -2 -49 -5 -27 -3 -33 0 -33 14 0
10 -12 37 -27 60 -30 46 -107 92 -154 92 -18 0 -34 10 -50 31 -46 59 -106 74
-168 41z m87 -84 c32 -32 -2 -79 -43 -60 -29 13 -33 46 -7 61 23 14 36 13 50
-1z m576 -174 c11 -29 6 -45 -16 -53 -44 -16 -77 26 -46 57 17 17 55 15 62 -4z
m-739 -204 c9 -15 -3 -47 -21 -54 -21 -8 -54 11 -54 31 0 28 30 54 51 43 10
-6 21 -15 24 -20z m413 -262 c17 -17 15 -55 -4 -62 -27 -11 -43 -7 -54 14 -22
40 26 80 58 48z"/>
</g>
</svg>
