<?xml version="1.0" encoding="utf-8"?>
<svg viewBox="262.9542 167.1784 101.6009 91.198" xmlns="http://www.w3.org/2000/svg">
  <defs>
    <clipPath id="clippath0" transform="">
      <path d="M 166.478 333.4 C 160.51 332.677 155.7 327.815 155.033 321.84 L 155.033 321.84 C 154.147 313.908 160.358 307.166 168.115 307.166 L 168.115 307.166 C 172.914 307.166 177.118 309.749 179.419 313.597 L 179.419 313.597 C 180.072 314.689 181.265 315.343 182.539 315.343 L 182.539 315.343 L 183.085 315.343 C 189.342 315.343 194.413 310.271 194.413 304.015 L 194.413 304.015 L 194.413 293.98 L 194.416 293.98 C 194.406 293.754 194.382 293.53 194.382 293.301 L 194.382 293.301 C 194.382 291.293 194.79 289.379 195.523 287.635 L 195.523 287.635 L 165.478 287.635 C 164.157 287.635 162.932 288.338 162.292 289.493 L 162.292 289.493 C 159.783 294.023 154.695 296.93 149.014 296.185 L 149.014 296.185 C 143.103 295.41 138.365 290.572 137.7 284.648 L 137.7 284.648 C 136.81 276.713 143.023 269.968 150.782 269.968 L 150.782 269.968 C 155.737 269.968 160.051 272.724 162.294 276.781 L 162.294 276.781 C 162.932 277.934 164.16 278.635 165.478 278.635 L 165.478 278.635 L 208.72 278.635 C 213.686 278.635 218.029 274.895 218.361 269.94 L 218.361 269.94 C 218.724 264.505 214.407 259.968 209.048 259.968 L 209.048 259.968 L 208.411 259.968 C 207.091 259.968 205.865 260.671 205.225 261.827 L 205.225 261.827 C 202.717 266.356 197.627 269.263 191.947 268.518 L 191.947 268.518 C 186.036 267.743 181.299 262.905 180.634 256.981 L 180.634 256.981 C 179.743 249.047 185.957 242.302 193.716 242.302 L 193.716 242.302 C 198.671 242.302 202.984 245.057 205.228 249.114 L 205.228 249.114 C 205.866 250.268 207.094 250.968 208.411 250.968 L 208.411 250.968 L 208.598 250.968 C 218.526 250.968 226.993 258.673 227.369 268.593 L 227.369 268.593 C 227.763 279.023 219.393 287.635 209.048 287.635 L 209.048 287.635 C 205.679 287.635 202.987 290.591 203.431 294.046 L 203.431 294.046 C 203.796 296.903 206.365 298.967 209.245 298.967 L 209.245 298.967 L 211.353 298.967 C 212.674 298.967 213.9 298.264 214.539 297.109 L 214.539 297.109 C 217.048 292.579 222.137 289.672 227.818 290.417 L 227.818 290.417 C 233.728 291.193 238.467 296.031 239.131 301.954 L 239.131 301.954 C 240.02 309.889 233.807 316.634 226.048 316.634 L 226.048 316.634 C 221.094 316.634 216.78 313.878 214.537 309.821 L 214.537 309.821 C 213.898 308.668 212.671 307.967 211.353 307.967 L 211.353 307.967 L 209.048 307.967 C 206.973 307.967 204.999 307.528 203.208 306.747 L 203.208 306.747 C 201.866 316.666 193.366 324.343 183.085 324.343 L 183.085 324.343 C 181.719 324.343 180.461 325.099 179.838 326.315 L 179.838 326.315 C 177.656 330.576 173.222 333.5 168.115 333.5 L 168.115 333.5 C 167.576 333.5 167.03 333.467 166.478 333.4 M 163.949 320.333 C 163.949 322.631 165.818 324.5 168.115 324.5 L 168.115 324.5 C 170.413 324.5 172.283 322.631 172.283 320.333 L 172.283 320.333 C 172.283 318.036 170.413 316.166 168.115 316.166 L 168.115 316.166 C 165.818 316.166 163.949 318.036 163.949 320.333 M 221.882 303.467 C 221.882 305.765 223.752 307.634 226.048 307.634 L 226.048 307.634 C 228.347 307.634 230.215 305.765 230.215 303.467 L 230.215 303.467 C 230.215 301.171 228.347 299.301 226.048 299.301 L 226.048 299.301 C 223.752 299.301 221.882 301.171 221.882 303.467 M 146.615 283.135 C 146.615 285.432 148.485 287.302 150.782 287.302 L 150.782 287.302 C 153.079 287.302 154.949 285.432 154.949 283.135 L 154.949 283.135 C 154.949 280.837 153.079 278.968 150.782 278.968 L 150.782 278.968 C 148.485 278.968 146.615 280.837 146.615 283.135 M 189.549 255.468 C 189.549 257.765 191.418 259.635 193.716 259.635 L 193.716 259.635 C 196.013 259.635 197.882 257.765 197.882 255.468 L 197.882 255.468 C 197.882 253.17 196.013 251.302 193.716 251.302 L 193.716 251.302 C 191.418 251.302 189.549 253.17 189.549 255.468" style="fill: none; clip-rule: nonzero;"/>
    </clipPath>
    <linearGradient id="shading0" gradientUnits="userSpaceOnUse" x1="0" y1="0" x2="1" y2="0">
      <stop offset="0" style="stop-color: rgb(113, 182, 255);"/>
      <stop offset="1" style="stop-color: rgb(0, 109, 224);"/>
    </linearGradient>
  </defs>
  <g style="clip-path: url('#clippath0');" transform="matrix(1, 0, 0, -1, 125.3392384648323, 500.6784260869027)">
    <g transform="matrix(101.600563 0 0 -101.600563 137.6151886 287.9006348)">
      <rect x="-1.35447269716409" y="-2.0875806091743803" width="7.381848858455637" height="4.921232572303758" style="fill: url('#shading0');"/>
    </g>
  </g>
</svg>